<svg id="グループ_12061" data-name="グループ 12061" xmlns="http://www.w3.org/2000/svg" width="30" height="30" viewBox="0 0 30 30">
  <circle id="楕円形_27" data-name="楕円形 27" cx="15" cy="15" r="15" transform="translate(30 30) rotate(180)" fill="#fff"/>
  <path id="パス_104867" data-name="パス 104867" d="M4.24-4.328v-.025a.371.371,0,0,1,.076.229A.371.371,0,0,1,4.24-3.9l-3,2.945a.275.275,0,0,1-.2.076A.371.371,0,0,1,.812-.951l-.178-.2a.275.275,0,0,1-.076-.2.371.371,0,0,1,.076-.229l2.59-2.539L.635-6.664a.316.316,0,0,1-.1-.229.241.241,0,0,1,.1-.2l.178-.178a.316.316,0,0,1,.229-.1.241.241,0,0,1,.2.1Z" transform="translate(13 19)" fill="#003b89"/>
</svg>